<mxfile host="app.diagrams.net" modified="2024-03-03T06:05:36.263Z" agent="Mozilla/5.0 (Windows NT 10.0; Win64; x64) AppleWebKit/537.36 (KHTML, like Gecko) Chrome/122.0.0.0 Safari/537.36 Edg/122.0.0.0" etag="Ioz-sUaeqKzNiUp5OU3B" version="23.1.7" type="github">
  <diagram name="第 1 页" id="JV5PM4zSFdWLgqJ2-_8I">
    <mxGraphModel dx="1000" dy="639" grid="1" gridSize="10" guides="1" tooltips="1" connect="1" arrows="1" fold="1" page="1" pageScale="1" pageWidth="827" pageHeight="1169" math="0" shadow="0">
      <root>
        <mxCell id="0" />
        <mxCell id="1" parent="0" />
        <mxCell id="Fv9BBJDTee_eZu_EgSb--40" style="edgeStyle=orthogonalEdgeStyle;rounded=0;orthogonalLoop=1;jettySize=auto;html=1;exitX=1;exitY=0.5;exitDx=0;exitDy=0;exitPerimeter=0;entryX=0;entryY=0.5;entryDx=0;entryDy=0;" edge="1" parent="1" source="Fv9BBJDTee_eZu_EgSb--42" target="Fv9BBJDTee_eZu_EgSb--45">
          <mxGeometry relative="1" as="geometry" />
        </mxCell>
        <mxCell id="Fv9BBJDTee_eZu_EgSb--41" style="edgeStyle=orthogonalEdgeStyle;rounded=0;orthogonalLoop=1;jettySize=auto;html=1;entryX=0;entryY=0.5;entryDx=0;entryDy=0;" edge="1" parent="1" source="Fv9BBJDTee_eZu_EgSb--42" target="Fv9BBJDTee_eZu_EgSb--48">
          <mxGeometry relative="1" as="geometry" />
        </mxCell>
        <mxCell id="Fv9BBJDTee_eZu_EgSb--42" value="" style="shape=cylinder3;whiteSpace=wrap;html=1;boundedLbl=1;backgroundOutline=1;size=15;" vertex="1" parent="1">
          <mxGeometry x="20" y="70" width="70" height="80" as="geometry" />
        </mxCell>
        <mxCell id="Fv9BBJDTee_eZu_EgSb--43" value="&lt;font style=&quot;font-size: 17px;&quot;&gt;训练&lt;br&gt;数据集&lt;/font&gt;" style="text;html=1;align=center;verticalAlign=middle;whiteSpace=wrap;rounded=0;" vertex="1" parent="1">
          <mxGeometry x="25" y="110" width="60" height="30" as="geometry" />
        </mxCell>
        <mxCell id="Fv9BBJDTee_eZu_EgSb--44" style="edgeStyle=orthogonalEdgeStyle;rounded=0;orthogonalLoop=1;jettySize=auto;html=1;exitX=1;exitY=0.5;exitDx=0;exitDy=0;entryX=0;entryY=0.5;entryDx=0;entryDy=0;" edge="1" parent="1" source="Fv9BBJDTee_eZu_EgSb--45" target="Fv9BBJDTee_eZu_EgSb--52">
          <mxGeometry relative="1" as="geometry" />
        </mxCell>
        <mxCell id="Fv9BBJDTee_eZu_EgSb--45" value="&lt;font style=&quot;font-size: 17px;&quot;&gt;教师网络&lt;/font&gt;" style="rounded=1;whiteSpace=wrap;html=1;" vertex="1" parent="1">
          <mxGeometry x="140" y="40" width="100" height="50" as="geometry" />
        </mxCell>
        <mxCell id="Fv9BBJDTee_eZu_EgSb--46" style="edgeStyle=orthogonalEdgeStyle;rounded=0;orthogonalLoop=1;jettySize=auto;html=1;exitX=1;exitY=0.5;exitDx=0;exitDy=0;entryX=0;entryY=0.5;entryDx=0;entryDy=0;" edge="1" parent="1" source="Fv9BBJDTee_eZu_EgSb--48" target="Fv9BBJDTee_eZu_EgSb--50">
          <mxGeometry relative="1" as="geometry" />
        </mxCell>
        <mxCell id="Fv9BBJDTee_eZu_EgSb--47" style="edgeStyle=orthogonalEdgeStyle;rounded=0;orthogonalLoop=1;jettySize=auto;html=1;exitX=1;exitY=0.5;exitDx=0;exitDy=0;entryX=0;entryY=0.5;entryDx=0;entryDy=0;" edge="1" parent="1" source="Fv9BBJDTee_eZu_EgSb--48" target="Fv9BBJDTee_eZu_EgSb--54">
          <mxGeometry relative="1" as="geometry" />
        </mxCell>
        <mxCell id="Fv9BBJDTee_eZu_EgSb--48" value="&lt;font style=&quot;font-size: 17px;&quot;&gt;学生网络&lt;/font&gt;" style="rounded=1;whiteSpace=wrap;html=1;" vertex="1" parent="1">
          <mxGeometry x="140" y="140" width="100" height="50" as="geometry" />
        </mxCell>
        <mxCell id="Fv9BBJDTee_eZu_EgSb--49" style="edgeStyle=orthogonalEdgeStyle;rounded=0;orthogonalLoop=1;jettySize=auto;html=1;exitX=1;exitY=0.5;exitDx=0;exitDy=0;" edge="1" parent="1" source="Fv9BBJDTee_eZu_EgSb--50" target="Fv9BBJDTee_eZu_EgSb--58">
          <mxGeometry relative="1" as="geometry" />
        </mxCell>
        <mxCell id="Fv9BBJDTee_eZu_EgSb--50" value="&lt;font style=&quot;font-size: 17px;&quot;&gt;Softmax&lt;br&gt;(T=t)&lt;/font&gt;" style="rounded=1;whiteSpace=wrap;html=1;" vertex="1" parent="1">
          <mxGeometry x="294" y="110" width="106" height="40" as="geometry" />
        </mxCell>
        <mxCell id="Fv9BBJDTee_eZu_EgSb--51" style="edgeStyle=orthogonalEdgeStyle;rounded=0;orthogonalLoop=1;jettySize=auto;html=1;exitX=1;exitY=0.5;exitDx=0;exitDy=0;entryX=0;entryY=0.5;entryDx=0;entryDy=0;" edge="1" parent="1" source="Fv9BBJDTee_eZu_EgSb--52" target="Fv9BBJDTee_eZu_EgSb--56">
          <mxGeometry relative="1" as="geometry" />
        </mxCell>
        <mxCell id="Fv9BBJDTee_eZu_EgSb--52" value="&lt;font style=&quot;font-size: 17px;&quot;&gt;Softmax&lt;br&gt;(T=t)&lt;/font&gt;" style="rounded=1;whiteSpace=wrap;html=1;" vertex="1" parent="1">
          <mxGeometry x="291" y="45" width="106" height="40" as="geometry" />
        </mxCell>
        <mxCell id="Fv9BBJDTee_eZu_EgSb--53" style="edgeStyle=orthogonalEdgeStyle;rounded=0;orthogonalLoop=1;jettySize=auto;html=1;exitX=1;exitY=0.5;exitDx=0;exitDy=0;" edge="1" parent="1" source="Fv9BBJDTee_eZu_EgSb--54" target="Fv9BBJDTee_eZu_EgSb--60">
          <mxGeometry relative="1" as="geometry" />
        </mxCell>
        <mxCell id="Fv9BBJDTee_eZu_EgSb--54" value="&lt;font style=&quot;font-size: 17px;&quot;&gt;Softmax&lt;br&gt;(T=1)&lt;/font&gt;" style="rounded=1;whiteSpace=wrap;html=1;" vertex="1" parent="1">
          <mxGeometry x="294" y="180" width="106" height="40" as="geometry" />
        </mxCell>
        <mxCell id="Fv9BBJDTee_eZu_EgSb--55" style="edgeStyle=orthogonalEdgeStyle;rounded=0;orthogonalLoop=1;jettySize=auto;html=1;exitX=1;exitY=0.5;exitDx=0;exitDy=0;" edge="1" parent="1" source="Fv9BBJDTee_eZu_EgSb--56" target="Fv9BBJDTee_eZu_EgSb--64">
          <mxGeometry relative="1" as="geometry" />
        </mxCell>
        <mxCell id="Fv9BBJDTee_eZu_EgSb--56" value="&lt;span style=&quot;font-size: 17px;&quot;&gt;软目标&lt;/span&gt;" style="rounded=1;whiteSpace=wrap;html=1;" vertex="1" parent="1">
          <mxGeometry x="440" y="45" width="80" height="40" as="geometry" />
        </mxCell>
        <mxCell id="Fv9BBJDTee_eZu_EgSb--57" style="edgeStyle=orthogonalEdgeStyle;rounded=0;orthogonalLoop=1;jettySize=auto;html=1;entryX=0;entryY=0.5;entryDx=0;entryDy=0;" edge="1" parent="1" source="Fv9BBJDTee_eZu_EgSb--58" target="Fv9BBJDTee_eZu_EgSb--64">
          <mxGeometry relative="1" as="geometry" />
        </mxCell>
        <mxCell id="Fv9BBJDTee_eZu_EgSb--58" value="&lt;span style=&quot;font-size: 17px;&quot;&gt;软目标1&lt;/span&gt;" style="rounded=1;whiteSpace=wrap;html=1;" vertex="1" parent="1">
          <mxGeometry x="440" y="110" width="80" height="40" as="geometry" />
        </mxCell>
        <mxCell id="Fv9BBJDTee_eZu_EgSb--59" style="edgeStyle=orthogonalEdgeStyle;rounded=0;orthogonalLoop=1;jettySize=auto;html=1;" edge="1" parent="1" source="Fv9BBJDTee_eZu_EgSb--60" target="Fv9BBJDTee_eZu_EgSb--66">
          <mxGeometry relative="1" as="geometry" />
        </mxCell>
        <mxCell id="Fv9BBJDTee_eZu_EgSb--60" value="&lt;span style=&quot;font-size: 17px;&quot;&gt;软目标2&lt;/span&gt;" style="rounded=1;whiteSpace=wrap;html=1;" vertex="1" parent="1">
          <mxGeometry x="440" y="180" width="80" height="40" as="geometry" />
        </mxCell>
        <mxCell id="Fv9BBJDTee_eZu_EgSb--61" style="edgeStyle=orthogonalEdgeStyle;rounded=0;orthogonalLoop=1;jettySize=auto;html=1;exitX=1;exitY=0.5;exitDx=0;exitDy=0;entryX=0;entryY=0.5;entryDx=0;entryDy=0;" edge="1" parent="1" source="Fv9BBJDTee_eZu_EgSb--62" target="Fv9BBJDTee_eZu_EgSb--66">
          <mxGeometry relative="1" as="geometry" />
        </mxCell>
        <mxCell id="Fv9BBJDTee_eZu_EgSb--62" value="&lt;span style=&quot;font-size: 17px;&quot;&gt;硬目标&lt;/span&gt;" style="rounded=1;whiteSpace=wrap;html=1;" vertex="1" parent="1">
          <mxGeometry x="440" y="250" width="80" height="40" as="geometry" />
        </mxCell>
        <mxCell id="Fv9BBJDTee_eZu_EgSb--63" style="edgeStyle=orthogonalEdgeStyle;rounded=0;orthogonalLoop=1;jettySize=auto;html=1;exitX=1;exitY=0.5;exitDx=0;exitDy=0;entryX=0;entryY=0.5;entryDx=0;entryDy=0;" edge="1" parent="1" source="Fv9BBJDTee_eZu_EgSb--64" target="Fv9BBJDTee_eZu_EgSb--67">
          <mxGeometry relative="1" as="geometry" />
        </mxCell>
        <mxCell id="Fv9BBJDTee_eZu_EgSb--64" value="&lt;span style=&quot;font-size: 17px;&quot;&gt;蒸馏损失&lt;/span&gt;" style="rounded=1;whiteSpace=wrap;html=1;" vertex="1" parent="1">
          <mxGeometry x="570" y="80" width="80" height="40" as="geometry" />
        </mxCell>
        <mxCell id="Fv9BBJDTee_eZu_EgSb--65" style="edgeStyle=orthogonalEdgeStyle;rounded=0;orthogonalLoop=1;jettySize=auto;html=1;exitX=1;exitY=0.5;exitDx=0;exitDy=0;entryX=0;entryY=0.5;entryDx=0;entryDy=0;" edge="1" parent="1" source="Fv9BBJDTee_eZu_EgSb--66" target="Fv9BBJDTee_eZu_EgSb--67">
          <mxGeometry relative="1" as="geometry" />
        </mxCell>
        <mxCell id="Fv9BBJDTee_eZu_EgSb--66" value="&lt;span style=&quot;font-size: 17px;&quot;&gt;学生损失&lt;/span&gt;" style="rounded=1;whiteSpace=wrap;html=1;" vertex="1" parent="1">
          <mxGeometry x="570" y="210" width="80" height="40" as="geometry" />
        </mxCell>
        <mxCell id="Fv9BBJDTee_eZu_EgSb--67" value="&lt;span style=&quot;font-size: 17px;&quot;&gt;总损失&lt;/span&gt;" style="rounded=1;whiteSpace=wrap;html=1;" vertex="1" parent="1">
          <mxGeometry x="700" y="140" width="80" height="40" as="geometry" />
        </mxCell>
      </root>
    </mxGraphModel>
  </diagram>
</mxfile>
